{
  "accessors": [
    {
      "name": "Path_0_positions",
      "componentType": 5126,
      "count": 2634,
      "min": [
        -52.70500183105469,
        -14.097000122070312,
        0.20000000298023224
      ],
      "max": [
        52.70500183105469,
        11.866000175476074,
        4.599999904632568
      ],
      "type": "VEC3",
      "bufferView": 0,
      "byteOffset": 0
    },
    {
      "name": "Path_0_normals",
      "componentType": 5126,
      "count": 2634,
      "min": [
        -0.9978315234184265,
        -0.9999971985816956,
        -1
      ],
      "max": [
        0.997837483882904,
        0.9999859929084778,
        1
      ],
      "type": "VEC3",
      "bufferView": 1,
      "byteOffset": 0
    },
    {
      "name": "Path_0_indices",
      "componentType": 5123,
      "count": 3912,
      "min": [
        0
      ],
      "max": [
        2633
      ],
      "type": "SCALAR",
      "bufferView": 2,
      "byteOffset": 0
    }
  ],
  "asset": {
    "generator": "obj2gltf",
    "version": "2.0"
  },
  "buffers": [
    {
      "name": "mrna-strand",
      "byteLength": 71040,
      "uri": "data:application/octet-stream;base64,"
    }
  ],
  "bufferViews": [
    {
      "name": "bufferView_0",
      "buffer": 0,
      "byteLength": 31608,
      "byteOffset": 0,
      "byteStride": 12,
      "target": 34962
    },
    {
      "name": "bufferView_1",
      "buffer": 0,
      "byteLength": 31608,
      "byteOffset": 31608,
      "byteStride": 12,
      "target": 34962
    },
    {
      "name": "bufferView_2",
      "buffer": 0,
      "byteLength": 7824,
      "byteOffset": 63216,
      "target": 34963
    }
  ],
  "materials": [
    {
      "name": "_2a775650-fa10-4a25-a637-4013c1541997",
      "pbrMetallicRoughness": {
        "baseColorFactor": [
          0.682,
          0.804,
          0.925,
          1
        ],
        "metallicFactor": 0,
        "roughnessFactor": 1
      },
      "emissiveFactor": [
        0,
        0,
        0
      ],
      "alphaMode": "OPAQUE",
      "doubleSided": false
    }
  ],
  "meshes": [
    {
      "name": "Path",
      "primitives": [
        {
          "attributes": {
            "POSITION": 0,
            "NORMAL": 1
          },
          "indices": 2,
          "material": 0,
          "mode": 4
        }
      ]
    }
  ],
  "nodes": [
    {
      "name": "000_Path",
      "mesh": 0
    }
  ],
  "scene": 0,
  "scenes": [
    {
      "nodes": [
        0
      ]
    }
  ]
}
