{
  "accessors": [
    {
      "name": "Merged_Objects_1_0_positions",
      "componentType": 5126,
      "count": 640,
      "min": [
        -50,
        5.298999786376953,
        -47.553001403808594
      ],
      "max": [
        50,
        232.41299438476562,
        47.553001403808594
      ],
      "type": "VEC3",
      "bufferView": 0,
      "byteOffset": 0
    },
    {
      "name": "Merged_Objects_1_0_normals",
      "componentType": 5126,
      "count": 640,
      "min": [
        -1,
        -1,
        -0.9999920129776001
      ],
      "max": [
        1,
        1,
        0.9999920129776001
      ],
      "type": "VEC3",
      "bufferView": 1,
      "byteOffset": 0
    },
    {
      "name": "Merged_Objects_1_0_indices",
      "componentType": 5123,
      "count": 948,
      "min": [
        0
      ],
      "max": [
        639
      ],
      "type": "SCALAR",
      "bufferView": 2,
      "byteOffset": 0
    }
  ],
  "asset": {
    "generator": "obj2gltf",
    "version": "2.0"
  },
  "buffers": [
    {
      "name": "liptid-node",
      "byteLength": 17256,
      "uri": "data:application/octet-stream;base64,"
    }
  ],
  "bufferViews": [
    {
      "name": "bufferView_0",
      "buffer": 0,
      "byteLength": 7680,
      "byteOffset": 0,
      "byteStride": 12,
      "target": 34962
    },
    {
      "name": "bufferView_1",
      "buffer": 0,
      "byteLength": 7680,
      "byteOffset": 7680,
      "byteStride": 12,
      "target": 34962
    },
    {
      "name": "bufferView_2",
      "buffer": 0,
      "byteLength": 1896,
      "byteOffset": 15360,
      "target": 34963
    }
  ],
  "materials": [
    {
      "name": "Torus material_ca4a4928-2e51-4538-99d1-164302e95b41",
      "pbrMetallicRoughness": {
        "baseColorFactor": [
          0.749,
          0.773,
          1,
          1
        ],
        "metallicFactor": 0,
        "roughnessFactor": 1
      },
      "emissiveFactor": [
        0,
        0,
        0
      ],
      "alphaMode": "OPAQUE",
      "doubleSided": false
    }
  ],
  "meshes": [
    {
      "name": "Merged_Objects_1",
      "primitives": [
        {
          "attributes": {
            "POSITION": 0,
            "NORMAL": 1
          },
          "indices": 2,
          "material": 0,
          "mode": 4
        }
      ]
    }
  ],
  "nodes": [
    {
      "name": "000_Merged_Objects_1",
      "mesh": 0
    }
  ],
  "scene": 0,
  "scenes": [
    {
      "nodes": [
        0
      ]
    }
  ]
}
